<svg xmlns="http://www.w3.org/2000/svg" xmlns:xlink="http://www.w3.org/1999/xlink" version="1.1" x="0px" y="0px" viewBox="0 0 100 100" enable-background="new 0 0 100 100" xml:space="preserve"><path d="M95,50C95,25.1,74.9,5,50,5S5,25.1,5,50c0,24.8,20.1,45,45,45S95,74.8,95,50L95,50z M51.4,71.1c-1.9-1.9-1.9-4.8,0-6.7  c0.1-0.2,9.7-9.7,9.7-9.7H27.4c-2.6,0-4.7-2.1-4.7-4.7s2.1-4.8,4.7-4.8h33.7c0,0-9.3-9.3-9.7-9.7c-1.9-1.9-1.9-4.9,0-6.7  c1.9-1.9,4.8-1.9,6.7,0c0.4,0.4,17.8,17.8,17.8,17.8c1.9,1.9,1.9,4.8,0,6.7c0,0-17.7,17.7-17.8,17.8C56.2,73,53.3,73,51.4,71.1z"/></svg>