<svg xmlns="http://www.w3.org/2000/svg" xmlns:xlink="http://www.w3.org/1999/xlink" version="1.1" x="0px" y="0px" viewBox="0 0 100 100" enable-background="new 0 0 100 100" xml:space="preserve"><path d="M5,50c0,24.9,20.1,45,45,45s45-20.1,45-45C95,25.2,74.9,5,50,5S5,25.2,5,50L5,50z M48.6,28.9c1.9,1.9,1.9,4.8,0,6.7  c-0.1,0.2-9.7,9.7-9.7,9.7h33.7c2.6,0,4.7,2.1,4.7,4.7s-2.1,4.8-4.7,4.8H38.9c0,0,9.3,9.3,9.7,9.7c1.9,1.9,1.9,4.9,0,6.7  c-1.9,1.9-4.8,1.9-6.7,0c-0.4-0.4-17.8-17.8-17.8-17.8c-1.9-1.9-1.9-4.8,0-6.7c0,0,17.7-17.7,17.8-17.8C43.8,27,46.7,27,48.6,28.9z"/></svg>